<mxfile host="app.diagrams.net" modified="2021-04-26T02:12:38.601Z" agent="5.0 (Windows NT 10.0; Win64; x64) AppleWebKit/537.36 (KHTML, like Gecko) Chrome/90.0.4430.85 Safari/537.36" etag="xbI9LGVoVn3LjJrx3PrL" version="14.6.6" type="github">
  <diagram id="H9GklrxbADEHMJYvMhnR" name="Page-1">
    <mxGraphModel dx="1422" dy="762" grid="1" gridSize="10" guides="1" tooltips="1" connect="1" arrows="1" fold="1" page="1" pageScale="1" pageWidth="827" pageHeight="1169" math="0" shadow="0">
      <root>
        <mxCell id="0" />
        <mxCell id="1" parent="0" />
        <mxCell id="JVD4vT71xOzBzeEMeKkR-3" value="" style="edgeStyle=orthogonalEdgeStyle;rounded=0;orthogonalLoop=1;jettySize=auto;html=1;" parent="1" source="JVD4vT71xOzBzeEMeKkR-1" target="JVD4vT71xOzBzeEMeKkR-2" edge="1">
          <mxGeometry relative="1" as="geometry" />
        </mxCell>
        <mxCell id="JVD4vT71xOzBzeEMeKkR-1" value="资源管理" style="rounded=1;whiteSpace=wrap;html=1;" parent="1" vertex="1">
          <mxGeometry x="140" y="220" width="90" height="30" as="geometry" />
        </mxCell>
        <mxCell id="JVD4vT71xOzBzeEMeKkR-2" value="节点模式配置" style="rounded=1;whiteSpace=wrap;html=1;" parent="1" vertex="1">
          <mxGeometry x="260" y="220" width="90" height="30" as="geometry" />
        </mxCell>
        <mxCell id="JVD4vT71xOzBzeEMeKkR-16" style="edgeStyle=orthogonalEdgeStyle;rounded=0;orthogonalLoop=1;jettySize=auto;html=1;exitX=1;exitY=0.5;exitDx=0;exitDy=0;entryX=0;entryY=0.5;entryDx=0;entryDy=0;" parent="1" target="JVD4vT71xOzBzeEMeKkR-12" edge="1">
          <mxGeometry relative="1" as="geometry">
            <mxPoint x="350" y="235" as="sourcePoint" />
          </mxGeometry>
        </mxCell>
        <mxCell id="JVD4vT71xOzBzeEMeKkR-17" style="edgeStyle=orthogonalEdgeStyle;rounded=0;orthogonalLoop=1;jettySize=auto;html=1;exitX=1;exitY=0.5;exitDx=0;exitDy=0;entryX=0;entryY=0.5;entryDx=0;entryDy=0;" parent="1" target="JVD4vT71xOzBzeEMeKkR-11" edge="1">
          <mxGeometry relative="1" as="geometry">
            <Array as="points">
              <mxPoint x="360" y="235" />
              <mxPoint x="360" y="195" />
            </Array>
            <mxPoint x="350" y="235" as="sourcePoint" />
          </mxGeometry>
        </mxCell>
        <mxCell id="JVD4vT71xOzBzeEMeKkR-18" style="edgeStyle=orthogonalEdgeStyle;rounded=0;orthogonalLoop=1;jettySize=auto;html=1;exitX=1;exitY=0.5;exitDx=0;exitDy=0;entryX=0;entryY=0.5;entryDx=0;entryDy=0;" parent="1" target="JVD4vT71xOzBzeEMeKkR-13" edge="1">
          <mxGeometry relative="1" as="geometry">
            <Array as="points">
              <mxPoint x="360" y="235" />
              <mxPoint x="360" y="275" />
            </Array>
            <mxPoint x="350" y="235" as="sourcePoint" />
          </mxGeometry>
        </mxCell>
        <mxCell id="JVD4vT71xOzBzeEMeKkR-11" value="启用模式" style="rounded=1;whiteSpace=wrap;html=1;" parent="1" vertex="1">
          <mxGeometry x="380" y="180" width="90" height="30" as="geometry" />
        </mxCell>
        <mxCell id="JVD4vT71xOzBzeEMeKkR-12" value="新增模式" style="rounded=1;whiteSpace=wrap;html=1;" parent="1" vertex="1">
          <mxGeometry x="380" y="220" width="90" height="30" as="geometry" />
        </mxCell>
        <mxCell id="JVD4vT71xOzBzeEMeKkR-13" value="版本控制" style="rounded=1;whiteSpace=wrap;html=1;" parent="1" vertex="1">
          <mxGeometry x="380" y="260" width="90" height="30" as="geometry" />
        </mxCell>
        <mxCell id="JVD4vT71xOzBzeEMeKkR-22" style="edgeStyle=orthogonalEdgeStyle;rounded=0;orthogonalLoop=1;jettySize=auto;html=1;exitX=1;exitY=0.5;exitDx=0;exitDy=0;entryX=0;entryY=0.5;entryDx=0;entryDy=0;" parent="1" source="JVD4vT71xOzBzeEMeKkR-19" target="JVD4vT71xOzBzeEMeKkR-20" edge="1">
          <mxGeometry relative="1" as="geometry" />
        </mxCell>
        <mxCell id="JVD4vT71xOzBzeEMeKkR-23" style="edgeStyle=orthogonalEdgeStyle;rounded=0;orthogonalLoop=1;jettySize=auto;html=1;exitX=1;exitY=0.5;exitDx=0;exitDy=0;entryX=0;entryY=0.5;entryDx=0;entryDy=0;" parent="1" source="JVD4vT71xOzBzeEMeKkR-19" target="JVD4vT71xOzBzeEMeKkR-21" edge="1">
          <mxGeometry relative="1" as="geometry">
            <Array as="points">
              <mxPoint x="240" y="315" />
              <mxPoint x="240" y="355" />
            </Array>
          </mxGeometry>
        </mxCell>
        <mxCell id="JVD4vT71xOzBzeEMeKkR-19" value="游戏管理" style="rounded=1;whiteSpace=wrap;html=1;" parent="1" vertex="1">
          <mxGeometry x="140" y="300" width="90" height="30" as="geometry" />
        </mxCell>
        <mxCell id="JVD4vT71xOzBzeEMeKkR-20" value="协议" style="rounded=1;whiteSpace=wrap;html=1;" parent="1" vertex="1">
          <mxGeometry x="260" y="300" width="90" height="30" as="geometry" />
        </mxCell>
        <mxCell id="JVD4vT71xOzBzeEMeKkR-21" value="拦截方式" style="rounded=1;whiteSpace=wrap;html=1;" parent="1" vertex="1">
          <mxGeometry x="260" y="340" width="90" height="30" as="geometry" />
        </mxCell>
        <mxCell id="JVD4vT71xOzBzeEMeKkR-25" style="edgeStyle=orthogonalEdgeStyle;rounded=0;orthogonalLoop=1;jettySize=auto;html=1;exitX=1;exitY=0.5;exitDx=0;exitDy=0;entryX=0;entryY=0.5;entryDx=0;entryDy=0;" parent="1" source="JVD4vT71xOzBzeEMeKkR-24" target="JVD4vT71xOzBzeEMeKkR-1" edge="1">
          <mxGeometry relative="1" as="geometry">
            <Array as="points">
              <mxPoint x="120" y="275" />
              <mxPoint x="120" y="235" />
            </Array>
          </mxGeometry>
        </mxCell>
        <mxCell id="JVD4vT71xOzBzeEMeKkR-26" style="edgeStyle=orthogonalEdgeStyle;rounded=0;orthogonalLoop=1;jettySize=auto;html=1;exitX=1;exitY=0.5;exitDx=0;exitDy=0;entryX=0;entryY=0.5;entryDx=0;entryDy=0;" parent="1" source="JVD4vT71xOzBzeEMeKkR-24" target="JVD4vT71xOzBzeEMeKkR-19" edge="1">
          <mxGeometry relative="1" as="geometry">
            <Array as="points">
              <mxPoint x="120" y="275" />
              <mxPoint x="120" y="315" />
            </Array>
          </mxGeometry>
        </mxCell>
        <mxCell id="JVD4vT71xOzBzeEMeKkR-24" value="v4.1.1" style="rounded=1;whiteSpace=wrap;html=1;" parent="1" vertex="1">
          <mxGeometry x="40" y="260" width="70" height="30" as="geometry" />
        </mxCell>
      </root>
    </mxGraphModel>
  </diagram>
</mxfile>
